<svg width="26" height="26" viewBox="0 0 26 26" fill="none" xmlns="http://www.w3.org/2000/svg">
<path fill-rule="evenodd" clip-rule="evenodd" d="M20.892 6.28103C21.0768 6.09615 21.0888 5.79921 20.9103 5.60828C18.9313 3.49202 16.1164 2.1665 13.0003 2.1665C7.03116 2.1665 2.16699 7.03067 2.16699 12.9998C2.16699 16.1387 3.51876 18.964 5.66047 20.9462C5.66409 20.9496 5.66664 20.9541 5.66585 20.959V20.959C5.6643 20.9687 5.66093 20.9788 5.66795 20.9856C5.72759 21.0435 5.79312 21.0954 5.85762 21.1464V21.1464C5.91278 21.1901 5.99251 21.1863 6.04225 21.1366L8.36667 18.8112C8.73579 18.442 8.39765 17.9259 7.9496 18.1939C7.84733 18.2551 7.74697 18.3185 7.64866 18.384C7.34189 18.5862 7.07102 18.8108 6.83027 19.0521C6.61978 19.263 6.27298 19.2825 6.07668 19.0583C4.65497 17.4344 3.79199 15.3135 3.79199 12.9998C3.79199 7.919 7.91949 3.7915 13.0003 3.7915C15.6426 3.7915 18.0271 4.9078 19.7073 6.69395C19.9086 6.90797 20.2491 6.92415 20.4568 6.71634L20.892 6.28103ZM21.2088 8.82623C21.1068 8.62639 21.1391 8.38216 21.2978 8.22353L21.767 7.75441C21.9948 7.5266 22.3759 7.57054 22.5296 7.85372C23.361 9.38582 23.8337 11.1391 23.8337 12.9998C23.8337 16.1359 22.4844 18.9588 20.3353 20.9408C20.3289 20.9466 20.3308 20.9554 20.3337 20.9636V20.9636V20.9636C20.3357 20.9694 20.3319 20.9755 20.3273 20.9796C20.2209 21.075 20.1044 21.1703 19.9879 21.2656L19.9878 21.2657C19.9436 21.2952 19.9043 21.3297 19.8632 21.3659C19.844 21.3828 19.8244 21.4001 19.8037 21.4173C19.6087 21.5798 19.4028 21.7315 19.1862 21.8832C19.1635 21.8994 19.1417 21.9156 19.1204 21.9315C19.0704 21.9688 19.0226 22.0045 18.9695 22.0348C18.8251 22.1287 18.6806 22.213 18.5362 22.2972C18.4639 22.3394 18.3917 22.3815 18.3195 22.4248C18.2906 22.4413 18.2617 22.4594 18.2323 22.4779C18.1843 22.5079 18.1348 22.5388 18.0812 22.5657C17.8537 22.6848 17.6262 22.7932 17.3987 22.8907C17.312 22.934 17.2253 22.9773 17.1387 23.0098C16.987 23.0748 16.8257 23.1302 16.6644 23.1856C16.5837 23.2133 16.5031 23.2409 16.4237 23.2698C16.337 23.2915 16.2503 23.324 16.1637 23.3565C15.9799 23.4204 15.7844 23.4667 15.5901 23.5126C15.5209 23.5289 15.4519 23.5453 15.3837 23.5623C15.3375 23.5681 15.2945 23.58 15.2528 23.5915C15.2163 23.6016 15.1808 23.6114 15.1453 23.6165C14.8534 23.6791 14.5614 23.7216 14.2598 23.7536C14.2363 23.7561 14.213 23.7604 14.19 23.7658C14.1581 23.7732 14.1263 23.779 14.0945 23.779C13.737 23.8115 13.3687 23.8332 13.0003 23.8332C12.6451 23.8332 12.2898 23.813 11.9345 23.7824C11.9084 23.7802 11.8826 23.7756 11.8571 23.7697C11.8265 23.7627 11.7959 23.7573 11.7653 23.7573C11.4512 23.7248 11.1478 23.6815 10.8445 23.6165C10.7578 23.6057 10.682 23.584 10.6062 23.5623L10.6062 23.5623C10.3462 23.4973 10.0862 23.4323 9.82616 23.3565C9.73949 23.3348 9.65282 23.3023 9.56616 23.2698C9.32783 23.194 9.08949 23.1073 8.85116 23.0098C8.76449 22.9773 8.67782 22.934 8.59116 22.8907C8.35282 22.7932 8.12533 22.6848 7.90866 22.5657C7.87074 22.544 7.83012 22.5196 7.7895 22.4953C7.74887 22.4709 7.70824 22.4465 7.67032 22.4248V22.4248C7.47962 22.3249 7.44905 22.0702 7.60129 21.918L12.4685 17.0515C12.558 16.962 12.678 16.9093 12.8045 16.9071C14.8113 16.8713 16.8326 17.3636 18.352 18.384C18.655 18.5837 18.9274 18.8053 19.1663 19.0433C19.3799 19.2559 19.7319 19.2781 19.9301 19.0512C21.3482 17.4283 22.2087 15.3102 22.2087 12.9998C22.2087 11.498 21.848 10.0795 21.2088 8.82623Z" fill="#1E1E1E"/>
<path d="M13 7.50732C10.7575 7.50732 8.9375 9.32732 8.9375 11.5698C8.9375 13.769 10.66 15.5565 12.9458 15.6215C12.9783 15.6215 13.0217 15.6215 13.0433 15.6215C13.065 15.6215 13.0975 15.6215 13.1192 15.6215C13.13 15.6215 13.1408 15.6215 13.1408 15.6215C15.3292 15.5457 17.0517 13.769 17.0625 11.5698C17.0625 9.32732 15.2425 7.50732 13 7.50732Z" fill="#1E1E1E"/>
<path d="M23.584 2.41611C23.259 2.09111 22.7281 2.09111 22.4031 2.41611L2.41563 22.4144C2.09062 22.7394 2.09062 23.2703 2.41563 23.5953C2.57813 23.7469 2.78396 23.8336 3.00063 23.8336C3.21729 23.8336 3.42312 23.7469 3.58562 23.5844L23.584 3.58611C23.9198 3.26111 23.9198 2.74111 23.584 2.41611Z" fill="#1E1E1E"/>
<path d="M24.0117 4.33844C23.6867 4.01349 23.1559 4.01349 22.8309 4.33844L2.84336 24.3338C2.51836 24.6587 2.51836 25.1895 2.84336 25.5144C3.00586 25.6661 3.21169 25.7527 3.42836 25.7527C3.64503 25.7527 3.85086 25.6661 4.01336 25.5036L24.0117 5.50826C24.3475 5.18331 24.3475 4.66339 24.0117 4.33844Z" fill="white"/>
</svg>
