<svg width="70" height="70" viewBox="0 0 70 70" fill="none" xmlns="http://www.w3.org/2000/svg">
<circle cx="35" cy="35" r="35" fill="#EC1F25"/>
<path d="M51.2671 41.5335L40.6005 22.3335C39.1671 19.7502 37.1838 18.3335 35.0005 18.3335C32.8171 18.3335 30.8338 19.7502 29.4005 22.3335L18.7338 41.5335C17.3838 43.9835 17.2338 46.3335 18.3171 48.1835C19.4005 50.0335 21.5338 51.0502 24.3338 51.0502H45.6671C48.4671 51.0502 50.6005 50.0335 51.6838 48.1835C52.7671 46.3335 52.6171 43.9668 51.2671 41.5335ZM33.7505 30.0002C33.7505 29.3168 34.3171 28.7502 35.0005 28.7502C35.6838 28.7502 36.2505 29.3168 36.2505 30.0002V38.3335C36.2505 39.0168 35.6838 39.5835 35.0005 39.5835C34.3171 39.5835 33.7505 39.0168 33.7505 38.3335V30.0002ZM36.1838 44.5168C36.1005 44.5835 36.0171 44.6502 35.9338 44.7168C35.8338 44.7835 35.7338 44.8335 35.6338 44.8668C35.5338 44.9168 35.4338 44.9502 35.3171 44.9668C35.2171 44.9835 35.1005 45.0002 35.0005 45.0002C34.9005 45.0002 34.7838 44.9835 34.6671 44.9668C34.5671 44.9502 34.4671 44.9168 34.3671 44.8668C34.2671 44.8335 34.1671 44.7835 34.0671 44.7168C33.9838 44.6502 33.9005 44.5835 33.8171 44.5168C33.5171 44.2002 33.3338 43.7668 33.3338 43.3335C33.3338 42.9002 33.5171 42.4668 33.8171 42.1502C33.9005 42.0835 33.9838 42.0168 34.0671 41.9502C34.1671 41.8835 34.2671 41.8335 34.3671 41.8002C34.4671 41.7502 34.5671 41.7168 34.6671 41.7002C34.8838 41.6502 35.1171 41.6502 35.3171 41.7002C35.4338 41.7168 35.5338 41.7502 35.6338 41.8002C35.7338 41.8335 35.8338 41.8835 35.9338 41.9502C36.0171 42.0168 36.1005 42.0835 36.1838 42.1502C36.4838 42.4668 36.6671 42.9002 36.6671 43.3335C36.6671 43.7668 36.4838 44.2002 36.1838 44.5168Z" fill="white"/>
</svg>
