<svg width="27" height="27" viewBox="0 0 27 27" fill="none" xmlns="http://www.w3.org/2000/svg">
<path d="M23.3258 6.16567C21.5816 5.99234 19.8375 5.86234 18.0825 5.76484V5.754L17.8441 4.34567C17.6816 3.349 17.4433 1.854 14.9083 1.854H12.07C9.5458 1.854 9.30747 3.284 9.13413 4.33484L8.90663 5.7215C7.89913 5.7865 6.89163 5.8515 5.88413 5.949L3.67413 6.16567C3.21913 6.209 2.89413 6.60984 2.93747 7.054C2.9808 7.49817 3.3708 7.82317 3.8258 7.77984L6.0358 7.56317C11.7125 6.99984 17.4325 7.2165 23.1741 7.79067C23.2066 7.79067 23.2283 7.79067 23.2608 7.79067C23.6725 7.79067 24.03 7.4765 24.0733 7.054C24.1058 6.60984 23.7808 6.209 23.3258 6.16567Z" fill="#EC1F25"/>
<path d="M21.3324 9.3185C21.0724 9.04766 20.7149 8.896 20.3466 8.896H6.65322C6.28489 8.896 5.91656 9.04766 5.66739 9.3185C5.41822 9.58933 5.27739 9.95766 5.29906 10.3368L5.97073 21.4518C6.08989 23.0985 6.24156 25.1568 10.0224 25.1568H16.9774C20.7582 25.1568 20.9099 23.1093 21.0291 21.4518L21.7007 10.3477C21.7224 9.95766 21.5816 9.58933 21.3324 9.3185ZM15.2982 19.7293H11.6907C11.2466 19.7293 10.8782 19.361 10.8782 18.9168C10.8782 18.4727 11.2466 18.1043 11.6907 18.1043H15.2982C15.7424 18.1043 16.1107 18.4727 16.1107 18.9168C16.1107 19.361 15.7424 19.7293 15.2982 19.7293ZM16.2082 15.396H10.7916C10.3474 15.396 9.97906 15.0277 9.97906 14.5835C9.97906 14.1393 10.3474 13.771 10.7916 13.771H16.2082C16.6524 13.771 17.0207 14.1393 17.0207 14.5835C17.0207 15.0277 16.6524 15.396 16.2082 15.396Z" fill="#EC1F25"/>
</svg>
