<svg width="60" height="60" viewBox="0 0 60 60" fill="none" xmlns="http://www.w3.org/2000/svg">
<rect width="60" height="60" rx="10" fill="#EC1F25"/>
<path d="M29.9997 18.3335C26.943 18.3335 24.458 20.8185 24.458 23.8752C24.458 26.8735 26.803 29.3002 29.8597 29.4052C29.953 29.3935 30.0463 29.3935 30.1163 29.4052C30.1397 29.4052 30.1513 29.4052 30.1747 29.4052C30.1863 29.4052 30.1863 29.4052 30.198 29.4052C33.1847 29.3002 35.5297 26.8735 35.5413 23.8752C35.5413 20.8185 33.0563 18.3335 29.9997 18.3335Z" fill="white"/>
<path d="M35.9271 32.5084C32.6721 30.3384 27.3638 30.3384 24.0854 32.5084C22.6038 33.5 21.7871 34.8417 21.7871 36.2767C21.7871 37.7117 22.6038 39.0417 24.0738 40.0217C25.7071 41.1184 27.8538 41.6667 30.0004 41.6667C32.1471 41.6667 34.2938 41.1184 35.9271 40.0217C37.3971 39.03 38.2138 37.7 38.2138 36.2534C38.2021 34.8184 37.3971 33.4884 35.9271 32.5084Z" fill="white"/>
</svg>
