<svg width="70" height="70" viewBox="0 0 70 70" fill="none" xmlns="http://www.w3.org/2000/svg">
<circle cx="35" cy="35" r="35" fill="#47B5AB"/>
<path d="M50 51.6665H20C19.3167 51.6665 18.75 51.0998 18.75 50.4165C18.75 49.7332 19.3167 49.1665 20 49.1665H50C50.6833 49.1665 51.25 49.7332 51.25 50.4165C51.25 51.0998 50.6833 51.6665 50 51.6665Z" fill="white"/>
<path d="M46.7009 20.8001C43.4676 17.5668 40.3009 17.4834 36.9843 20.8001L34.9676 22.8168C34.8009 22.9834 34.7343 23.2501 34.8009 23.4834C36.0676 27.9001 39.6009 31.4334 44.0176 32.7001C44.0843 32.7168 44.1509 32.7334 44.2176 32.7334C44.4009 32.7334 44.5676 32.6668 44.7009 32.5334L46.7009 30.5168C48.3509 28.8834 49.1509 27.3001 49.1509 25.7001C49.1676 24.0501 48.3676 22.4501 46.7009 20.8001Z" fill="white"/>
<path d="M41.0159 34.2168C40.5326 33.9835 40.0659 33.7502 39.6159 33.4835C39.2492 33.2668 38.8992 33.0335 38.5492 32.7835C38.2659 32.6002 37.9326 32.3335 37.6159 32.0668C37.5826 32.0502 37.4659 31.9502 37.3326 31.8168C36.7826 31.3502 36.1659 30.7502 35.6159 30.0835C35.5659 30.0502 35.4826 29.9335 35.3659 29.7835C35.1992 29.5835 34.9159 29.2502 34.6659 28.8668C34.4659 28.6168 34.2326 28.2502 34.0159 27.8835C33.7492 27.4335 33.5159 26.9835 33.2826 26.5168C33.1708 26.2774 33.0706 26.0418 32.9781 25.8119C32.8421 25.4737 32.4055 25.3773 32.1477 25.635L22.2326 35.5502C22.0159 35.7668 21.8159 36.1835 21.7659 36.4668L20.8659 42.8502C20.6992 43.9835 21.0159 45.0502 21.7159 45.7668C22.3159 46.3502 23.1492 46.6668 24.0492 46.6668C24.2492 46.6668 24.4492 46.6502 24.6492 46.6168L31.0492 45.7168C31.3492 45.6668 31.7659 45.4668 31.9659 45.2502L41.8739 35.3422C42.1334 35.0826 42.0347 34.6394 41.6944 34.5019C41.4747 34.4131 41.2508 34.3186 41.0159 34.2168Z" fill="white"/>
</svg>
