<svg width="25" height="25" viewBox="0 0 25 25" fill="none" xmlns="http://www.w3.org/2000/svg">
<path d="M17.7085 3.646H7.29183C4.16683 3.646 2.0835 5.2085 2.0835 8.85433V16.146C2.0835 19.7918 4.16683 21.3543 7.29183 21.3543H17.7085C20.8335 21.3543 22.9168 19.7918 22.9168 16.146V8.85433C22.9168 5.2085 20.8335 3.646 17.7085 3.646ZM18.1981 9.98975L14.9377 12.5939C14.2502 13.146 13.3752 13.4168 12.5002 13.4168C11.6252 13.4168 10.7397 13.146 10.0627 12.5939L6.80225 9.98975C6.46891 9.71891 6.41683 9.21891 6.67725 8.88558C6.94808 8.55225 7.43766 8.48975 7.771 8.76058L11.0314 11.3647C11.8231 12.0002 13.1668 12.0002 13.9585 11.3647L17.2189 8.76058C17.5522 8.48975 18.0522 8.54183 18.3127 8.88558C18.5835 9.21891 18.5314 9.71891 18.1981 9.98975Z" fill="#1C1C1E"/>
</svg>
