<svg width="25" height="25" viewBox="0 0 25 25" fill="none" xmlns="http://www.w3.org/2000/svg">
<path d="M22.1356 9.53109C19.7293 5.74984 16.2085 3.57275 12.5002 3.57275C10.646 3.57275 8.84391 4.11442 7.19808 5.12484C5.55225 6.14567 4.07308 7.63525 2.86475 9.53109C1.82308 11.1665 1.82308 13.8228 2.86475 15.4582C5.271 19.2498 8.79183 21.4165 12.5002 21.4165C14.3543 21.4165 16.1564 20.8748 17.8022 19.8644C19.4481 18.8436 20.9272 17.354 22.1356 15.4582C23.1772 13.8332 23.1772 11.1665 22.1356 9.53109ZM12.5002 16.7082C10.1668 16.7082 8.29183 14.8228 8.29183 12.4998C8.29183 10.1769 10.1668 8.2915 12.5002 8.2915C14.8335 8.2915 16.7085 10.1769 16.7085 12.4998C16.7085 14.8228 14.8335 16.7082 12.5002 16.7082Z" fill="#1C1C1E"/>
<path d="M12.5 9.521C10.8646 9.521 9.53125 10.8543 9.53125 12.5002C9.53125 14.1356 10.8646 15.4689 12.5 15.4689C14.1354 15.4689 15.4792 14.1356 15.4792 12.5002C15.4792 10.8647 14.1354 9.521 12.5 9.521Z" fill="#1C1C1E"/>
</svg>
