<svg width="25" height="25" viewBox="0 0 25 25" fill="none" xmlns="http://www.w3.org/2000/svg">
<path d="M22.1562 9.5624C21.8541 9.08323 21.5312 8.63532 21.1978 8.21865C20.8124 7.72907 20.0833 7.6874 19.6458 8.1249L16.5208 11.2499C16.7499 11.9374 16.7916 12.7291 16.5833 13.552C16.2187 15.0207 15.0312 16.2082 13.5624 16.5728C12.7395 16.7811 11.9478 16.7395 11.2603 16.5103C11.2603 16.5103 9.77076 17.9999 8.69784 19.0728C8.17701 19.5936 8.34368 20.5103 9.04159 20.7812C10.1562 21.2082 11.3124 21.427 12.4999 21.427C14.3541 21.427 16.1562 20.8853 17.802 19.8749C19.4791 18.8332 20.9895 17.302 22.2083 15.3541C23.1978 13.7811 23.1458 11.1353 22.1562 9.5624Z" fill="#1C1C1E"/>
<path d="M14.6041 10.396L10.3958 14.6043C9.8645 14.0627 9.52075 13.3127 9.52075 12.5002C9.52075 10.8647 10.8541 9.521 12.4999 9.521C13.3124 9.521 14.0624 9.86475 14.6041 10.396Z" fill="#1C1C1E"/>
<path d="M19.0103 5.98942L15.4791 9.52067C14.7187 8.74984 13.6666 8.2915 12.4999 8.2915C10.1666 8.2915 8.29159 10.1769 8.29159 12.4998C8.29159 13.6665 8.76034 14.7186 9.52075 15.479L5.99992 19.0103H5.9895C4.83325 18.0728 3.77075 16.8748 2.8645 15.4582C1.82284 13.8228 1.82284 11.1665 2.8645 9.53109C4.07284 7.63525 5.552 6.14567 7.19784 5.12484C8.84367 4.12484 10.6458 3.57275 12.4999 3.57275C14.8228 3.57275 17.0728 4.42692 19.0103 5.98942Z" fill="#1E1E1E"/>
<path d="M15.4792 12.4998C15.4792 14.1353 14.1459 15.479 12.5001 15.479C12.4376 15.479 12.3855 15.479 12.323 15.4582L15.4584 12.3228C15.4792 12.3853 15.4792 12.4373 15.4792 12.4998Z" fill="#1E1E1E"/>
<path d="M22.6772 2.32275C22.3647 2.01025 21.8543 2.01025 21.5418 2.32275L2.323 21.5519C2.0105 21.8644 2.0105 22.3748 2.323 22.6873C2.47925 22.8332 2.67716 22.9165 2.8855 22.9165C3.09383 22.9165 3.29175 22.8332 3.448 22.6769L22.6772 3.44775C23.0001 3.13525 23.0001 2.63525 22.6772 2.32275Z" fill="#1E1E1E"/>
</svg>
