<svg width="20" height="20" viewBox="0 0 20 20" fill="none" xmlns="http://www.w3.org/2000/svg">
<path d="M17.9667 8.9499L16.8417 7.63324C16.6334 7.38324 16.4584 6.91657 16.4584 6.58324V5.16657C16.4584 4.28324 15.7334 3.55824 14.8501 3.55824H13.4334C13.1001 3.55824 12.6251 3.38324 12.3751 3.1749L11.0584 2.0499C10.4834 1.55824 9.54173 1.55824 8.96673 2.0499L7.6334 3.1749C7.3834 3.38324 6.91673 3.55824 6.5834 3.55824H5.14173C4.2584 3.55824 3.5334 4.28324 3.5334 5.16657V6.58324C3.5334 6.90824 3.36673 7.3749 3.1584 7.6249L2.0334 8.9499C1.55007 9.53324 1.55007 10.4666 2.0334 11.0332L3.1584 12.3582C3.36673 12.5999 3.5334 13.0749 3.5334 13.3999V14.8249C3.5334 15.7082 4.2584 16.4332 5.14173 16.4332H6.59173C6.91673 16.4332 7.39173 16.6082 7.64173 16.8166L8.9584 17.9416C9.5334 18.4332 10.4751 18.4332 11.0501 17.9416L12.3667 16.8166C12.6167 16.6082 13.0834 16.4332 13.4167 16.4332H14.8334C15.7167 16.4332 16.4417 15.7082 16.4417 14.8249V13.4082C16.4417 13.0749 16.6167 12.6082 16.8251 12.3582L17.9501 11.0416C18.4584 10.4749 18.4584 9.53324 17.9667 8.9499ZM9.37506 6.7749C9.37506 6.43324 9.6584 6.1499 10.0001 6.1499C10.3417 6.1499 10.6251 6.43324 10.6251 6.7749V10.7999C10.6251 11.1416 10.3417 11.4249 10.0001 11.4249C9.6584 11.4249 9.37506 11.1416 9.37506 10.7999V6.7749ZM10.0001 14.0582C9.54173 14.0582 9.16673 13.6832 9.16673 13.2249C9.16673 12.7666 9.5334 12.3916 10.0001 12.3916C10.4584 12.3916 10.8334 12.7666 10.8334 13.2249C10.8334 13.6832 10.4667 14.0582 10.0001 14.0582Z" fill="#49494B"/>
</svg>
