<svg width="40" height="40" viewBox="0 0 40 40" fill="none" xmlns="http://www.w3.org/2000/svg">
<path d="M26.5167 21.6169H33.3064C33.1868 24.8348 32.7695 26.6291 31.9968 27.9052C31.1477 29.3072 29.7934 30.2233 27.3738 31.6565L27.3737 31.6565L27.3651 31.6617C26.3492 32.2774 26.0095 33.5836 26.6215 34.6239L26.6214 34.624L26.6282 34.6352C27.2439 35.6511 28.5501 35.9908 29.5904 35.3788L29.5926 35.3775C32.4132 33.7086 34.5299 32.2521 35.8686 29.8593C37.1966 27.4855 37.6834 24.3313 37.6834 19.4502V10.4669C37.6834 7.0625 34.9169 4.31689 31.5334 4.31689H26.5334C23.0478 4.31689 20.3834 6.98128 20.3834 10.4669V15.4642C20.3651 18.9538 23.0331 21.6169 26.5167 21.6169Z" fill="#D3E5F3" stroke="#FCFCFC" stroke-width="2"/>
<path d="M8.4835 21.6169H15.2732C15.1536 24.8348 14.7363 26.6291 13.9635 27.9052C13.1145 29.3072 11.7602 30.2233 9.34052 31.6565L9.3405 31.6565L9.33186 31.6617C8.31599 32.2774 7.97626 33.5836 8.58823 34.6239L8.58815 34.624L8.59497 34.6352C9.21065 35.6511 10.5168 35.9908 11.5572 35.3788L11.5594 35.3775C14.3799 33.7086 16.4967 32.2521 17.8354 29.8593C19.1634 27.4855 19.6502 24.3313 19.6502 19.4502V10.4669C19.6502 7.06251 16.8837 4.31689 13.5002 4.31689H8.50016C5.00001 4.31689 2.3335 6.97915 2.3335 10.4669V15.4669C2.3335 18.9525 4.99788 21.6169 8.4835 21.6169Z" fill="#D3E5F3" stroke="#FCFCFC" stroke-width="2"/>
</svg>
