<svg width="60" height="60" viewBox="0 0 60 60" fill="none" xmlns="http://www.w3.org/2000/svg">
<rect width="60" height="60" rx="10" fill="#247FC2"/>
<path d="M30.0002 18.3335C26.9435 18.3335 24.4585 20.8185 24.4585 23.8752C24.4585 26.8735 26.8035 29.3002 29.8602 29.4052C29.9535 29.3935 30.0468 29.3935 30.1168 29.4052C30.1402 29.4052 30.1518 29.4052 30.1752 29.4052C30.1868 29.4052 30.1868 29.4052 30.1985 29.4052C33.1852 29.3002 35.5302 26.8735 35.5418 23.8752C35.5418 20.8185 33.0568 18.3335 30.0002 18.3335Z" fill="white"/>
<path d="M35.9266 32.5084C32.6716 30.3384 27.3633 30.3384 24.085 32.5084C22.6033 33.5 21.7866 34.8417 21.7866 36.2767C21.7866 37.7117 22.6033 39.0417 24.0733 40.0217C25.7066 41.1184 27.8533 41.6667 30 41.6667C32.1466 41.6667 34.2933 41.1184 35.9266 40.0217C37.3966 39.03 38.2133 37.7 38.2133 36.2534C38.2016 34.8184 37.3966 33.4884 35.9266 32.5084Z" fill="white"/>
</svg>
